<svg width="114" height="680" viewBox="0 0 114 680" fill="none" xmlns="http://www.w3.org/2000/svg">
<path d="M54.1341 250.587C52.1704 256.104 49.1718 260.507 45.1383 263.796C41.1578 267.137 36.0098 268.808 29.6941 268.808C20.7779 268.808 13.9581 265.493 9.23462 258.862C4.51116 252.232 2.14943 243.161 2.14943 231.65L2.14943 187.489L106.676 187.489L106.676 231.809C106.676 243.002 104.022 251.781 98.7151 258.146C93.4609 264.512 86.4818 267.694 77.7779 267.694C71.6746 267.694 66.6327 266.156 62.6522 263.079C58.7248 260.056 55.8855 255.892 54.1341 250.587ZM86.6145 210.962L62.8114 210.962L62.8114 230.695C62.8114 235.045 64.0056 238.36 66.3938 240.641C68.7821 242.922 71.4888 244.063 74.514 244.063C77.5391 244.063 80.2989 242.949 82.7933 240.721C85.3408 238.493 86.6145 235.151 86.6145 230.695L86.6145 210.962ZM22.2109 231.968C22.2109 236 23.2458 239.235 25.3156 241.676C27.3855 244.116 30.1452 245.336 33.595 245.336C36.9385 245.336 39.7514 244.063 42.0335 241.516C44.3687 238.97 45.5363 235.787 45.5363 231.968L45.5363 210.962L22.2109 210.962L22.2109 231.968Z" fill="#1C1C1C"/>
<path d="M76.345 322.199C76.345 324.586 76.1327 326.867 75.7081 329.042L55.9651 329.042C56.0712 328.299 56.1243 327.159 56.1243 325.62C56.1243 319.096 54.3994 314.056 50.9497 310.502C47.5531 307.001 42.75 305.251 36.5405 305.251L2.14942 305.251L2.14942 282.494L75.7081 282.494L75.7081 303.341L65.757 304.773C69.2598 305.993 71.8869 308.142 73.6383 311.218C75.4427 314.295 76.345 317.955 76.345 322.199Z" fill="#1C1C1C"/>
<path d="M75.7081 417.999L2.14942 417.999L2.14942 396.118L10.588 396.118C7.35054 393.625 4.77651 390.15 2.8659 385.695C0.955283 381.239 -2.40829e-05 376.412 -2.38556e-05 371.213C-2.35565e-05 364.37 1.59216 358.296 4.77651 352.992C8.01394 347.74 12.4986 343.682 18.2304 340.818C24.0153 337.953 30.729 336.521 38.3715 336.521C46.3324 336.521 53.3114 338.06 59.3086 341.136C65.3058 344.213 69.9497 348.536 73.2402 354.106C76.5838 359.729 78.2556 366.121 78.2556 373.282C78.2556 383.838 75.0181 391.874 68.5433 397.391L75.7081 398.903L75.7081 417.999ZM20.5391 377.26C20.5391 382.565 22.2374 386.862 25.6341 390.15C29.0838 393.492 33.648 395.163 39.3268 395.163C44.8463 395.163 49.2779 393.492 52.6215 390.15C56.0181 386.862 57.7165 382.565 57.7165 377.26C57.7165 371.956 55.9916 367.712 52.5419 364.529C49.1452 361.347 44.6871 359.755 39.1676 359.755C33.648 359.755 29.1634 361.347 25.7137 364.529C22.2639 367.765 20.5391 372.009 20.5391 377.26Z" fill="#1C1C1C"/>
<path d="M78.2556 478.551C78.2556 487.357 75.4958 494.199 69.9762 499.08C64.4567 504.013 57.053 506.48 47.7653 506.48L2.14941 506.48L2.14942 483.643L42.4315 483.643C52.5153 483.643 57.5572 479.506 57.5572 471.231C57.5572 466.881 56.2835 463.592 53.736 461.364C51.1885 459.136 47.6327 458.022 43.0684 458.022L2.14942 458.022L2.14942 435.425L75.7081 435.425L75.7081 454.283L67.6676 455.794C70.905 458.075 73.479 461.232 75.3896 465.263C77.3003 469.348 78.2556 473.777 78.2556 478.551Z" fill="#1C1C1C"/>
<path d="M114 601.166L2.14941 601.166L2.14941 582.229L10.986 580.956C7.48321 578.462 4.7765 575.015 2.86589 570.612C0.955275 566.209 -3.21659e-05 561.329 -3.19317e-05 555.971C-3.16233e-05 548.916 1.61869 542.63 4.85612 537.113C8.14662 531.65 12.7109 527.38 18.5489 524.303C24.4399 521.226 31.2598 519.688 39.0084 519.688C46.7039 519.688 53.5503 521.226 59.5475 524.303C65.5447 527.38 70.162 531.65 73.3994 537.113C76.6368 542.63 78.2556 548.916 78.2556 555.971C78.2556 560.851 77.5656 565.201 76.1857 569.02C74.8589 572.84 72.8952 575.996 70.2947 578.489L114 578.489L114 601.166ZM20.5391 560.427C20.5391 565.732 22.2374 570.028 25.634 573.317C29.0838 576.659 33.648 578.33 39.3268 578.33C44.8463 578.33 49.2779 576.659 52.6215 573.317C56.0181 570.028 57.7165 565.732 57.7165 560.427C57.7165 555.122 55.9916 550.879 52.5419 547.696C49.1452 544.513 44.6871 542.922 39.1676 542.922C33.648 542.922 29.1634 544.513 25.7137 547.696C22.2639 550.932 20.5391 555.175 20.5391 560.427Z" fill="#1C1C1C"/>
<path d="M-3.5914e-05 647.077C-3.55059e-05 637.741 2.20248 630.102 6.60751 624.161C11.0125 618.273 17.0363 615.011 24.6787 614.374L24.6787 636.813C22.1843 636.919 20.2472 637.927 18.8673 639.836C17.4874 641.746 16.7974 644.16 16.7974 647.077C16.7974 649.676 17.2751 651.745 18.2304 653.283C19.2388 654.822 20.7248 655.591 22.6885 655.591C24.4399 655.591 25.7137 654.981 26.5097 653.761C27.3589 652.594 27.9958 650.976 28.4204 648.907L31.3659 637.131C34.7095 623.127 42.0866 616.125 53.4972 616.125C60.8743 616.125 66.8449 618.936 71.4092 624.559C75.9734 630.235 78.2556 637.635 78.2556 646.759C78.2556 655.777 76.0265 663.07 71.5684 668.64C67.1103 674.263 61.2458 677.18 53.9748 677.393L53.9748 655.273C56.1508 655.167 57.8757 654.291 59.1494 652.647C60.4762 651.002 61.1396 648.881 61.1396 646.281C61.1396 644 60.662 642.197 59.7067 640.871C58.7514 639.598 57.398 638.961 55.6466 638.961C53.8952 638.961 52.6746 639.492 51.9846 640.552C51.3477 641.666 50.7109 643.523 50.074 646.122L46.81 659.808C45.2709 666.439 42.5642 671.292 38.6899 674.369C34.8687 677.499 30.3044 679.064 24.9972 679.064C17.4078 679.064 11.331 676.173 6.76672 670.391C2.25555 664.662 -3.6343e-05 656.891 -3.5914e-05 647.077Z" fill="#1C1C1C"/>
<path d="M106.835 157.88L106.835 171.407L2.14943 130.668L2.14943 117.141L106.835 157.88Z" fill="#1C1C1C"/>
<path d="M101.615 111.284C101.566 109.926 101.178 107.841 100.45 105.028C99.7225 102.216 98.9706 100.204 98.1943 98.9915C96.9815 97.2459 94.6528 96.0579 91.2083 95.4275C87.7638 94.8456 83.3975 94.5547 78.1094 94.5547L2.5 94.5547L2.5 88.2268L86.9876 25.6752L33.7189 25.6752C27.7517 25.6752 23.1671 26.0389 19.9651 26.7663C16.7632 27.5421 14.483 28.7058 13.1246 30.2575C12.0573 31.3728 11.0628 33.676 10.141 37.1673C9.21922 40.6585 8.73408 42.9618 8.68557 44.077L3.5188 44.077L3.5188 1.74562L8.68557 1.74562C8.7826 3.05484 9.24348 5.26112 10.0682 8.36445C10.9415 11.4678 11.7177 13.4074 12.3969 14.1832C13.7553 15.8803 15.8172 17.0441 18.5825 17.6745C21.3963 18.3048 26.175 18.62 32.9184 18.62L83.7856 18.62C86.0173 18.62 88.2489 18.2321 90.4806 17.4563C92.7122 16.6804 94.4345 15.6379 95.6473 14.3287C97.2483 12.583 98.6067 10.2071 99.7225 7.2007C100.887 4.24284 101.518 1.8426 101.615 -5.41383e-07L106.781 -3.15536e-07L106.781 29.4574L28.0427 87.4995L77.1634 87.4995C83.1792 87.4995 87.788 87.1116 90.99 86.3357C94.2404 85.5599 96.3993 84.4446 97.4666 82.9899C98.3884 81.6322 99.2859 79.4017 100.159 76.2984C101.032 73.2435 101.518 70.916 101.615 69.3159L106.781 69.3159L106.781 111.284L101.615 111.284Z" fill="#1C1C1C"/>
</svg>
